<svg width="60" height="60" viewBox="0 0 60 60" fill="none" xmlns="http://www.w3.org/2000/svg">
<g filter="url(#filter0_d_4_879)">
<path d="M55 28C55 41.8071 43.8071 53 30 53C16.1929 53 5 41.8071 5 28C5 14.1929 16.1929 3 30 3C43.8071 3 55 14.1929 55 28Z" fill="#393D3F"/>
</g>
<circle cx="20" cy="19" r="5" fill="#FDFDFF"/>
<circle cx="39.5" cy="18.5" r="3.5" fill="#FDFDFF"/>
<path d="M24 38L25.5624 36.9584C28.2496 35.1669 31.7504 35.1669 34.4376 36.9584L36 38" stroke="#FDFDFF"/>
<path d="M25 38V38C28.0776 36.1534 31.9224 36.1534 35 38V38" stroke="#FDFDFF"/>
<path d="M36 38L32.7735 40.151C31.094 41.2707 28.906 41.2707 27.2265 40.151L24 38" stroke="#FDFDFF"/>
<path d="M35 38L33.087 39.1478C31.1869 40.2879 28.8131 40.2879 26.913 39.1478L25 38" stroke="#FDFDFF" stroke-width="2"/>
<path d="M40.5 17C40.5 17.5523 40.0523 18 39.5 18C38.9477 18 38.5 17.5523 38.5 17C38.5 16.4477 38.9477 16 39.5 16C40.0523 16 40.5 16.4477 40.5 17Z" fill="#393D3F"/>
<path d="M21 17C21 17.5523 20.5523 18 20 18C19.4477 18 19 17.5523 19 17C19 16.4477 19.4477 16 20 16C20.5523 16 21 16.4477 21 17Z" fill="#393D3F"/>
<defs>
<filter id="filter0_d_4_879" x="0" y="0" width="60" height="60" filterUnits="userSpaceOnUse" color-interpolation-filters="sRGB">
<feFlood flood-opacity="0" result="BackgroundImageFix"/>
<feColorMatrix in="SourceAlpha" type="matrix" values="0 0 0 0 0 0 0 0 0 0 0 0 0 0 0 0 0 0 127 0" result="hardAlpha"/>
<feOffset dy="2"/>
<feGaussianBlur stdDeviation="2.5"/>
<feComposite in2="hardAlpha" operator="out"/>
<feColorMatrix type="matrix" values="0 0 0 0 1 0 0 0 0 1 0 0 0 0 1 0 0 0 0.25 0"/>
<feBlend mode="normal" in2="BackgroundImageFix" result="effect1_dropShadow_4_879"/>
<feBlend mode="normal" in="SourceGraphic" in2="effect1_dropShadow_4_879" result="shape"/>
</filter>
</defs>
</svg>
