<svg width="60" height="60" viewBox="0 0 60 60" fill="none" xmlns="http://www.w3.org/2000/svg">
<g filter="url(#filter0_d_4_875)">
<path d="M55 28C55 41.8071 43.8071 53 30 53C16.1929 53 5 41.8071 5 28C5 14.1929 16.1929 3 30 3C43.8071 3 55 14.1929 55 28Z" fill="#393D3F"/>
</g>
<circle cx="20" cy="19" r="5" fill="#FDFDFF"/>
<circle cx="40" cy="19" r="5" fill="#FDFDFF"/>
<path d="M18 17L22 21M18 21L22 17" stroke="#393D3F"/>
<path d="M27 33L33 39M27 39L33 33" stroke="#FDFDFF"/>
<path d="M38 17L42 21M38 21L42 17" stroke="#393D3F"/>
<defs>
<filter id="filter0_d_4_875" x="0" y="0" width="60" height="60" filterUnits="userSpaceOnUse" color-interpolation-filters="sRGB">
<feFlood flood-opacity="0" result="BackgroundImageFix"/>
<feColorMatrix in="SourceAlpha" type="matrix" values="0 0 0 0 0 0 0 0 0 0 0 0 0 0 0 0 0 0 127 0" result="hardAlpha"/>
<feOffset dy="2"/>
<feGaussianBlur stdDeviation="2.5"/>
<feComposite in2="hardAlpha" operator="out"/>
<feColorMatrix type="matrix" values="0 0 0 0 1 0 0 0 0 1 0 0 0 0 1 0 0 0 0.25 0"/>
<feBlend mode="normal" in2="BackgroundImageFix" result="effect1_dropShadow_4_875"/>
<feBlend mode="normal" in="SourceGraphic" in2="effect1_dropShadow_4_875" result="shape"/>
</filter>
</defs>
</svg>
