<svg width="50" height="50" viewBox="0 0 50 50" fill="none" xmlns="http://www.w3.org/2000/svg">
<path d="M50 25C50 38.8071 38.8071 50 25 50C11.1929 50 0 38.8071 0 25C0 11.1929 11.1929 0 25 0C38.8071 0 50 11.1929 50 25Z" fill="#393D3F"/>
<path d="M22.4295 31.0035C21.8169 31.0038 21 31.0034 21 32.8907C21 34.778 21 32.3357 21 33.6678C21 35 21.8169 34.9999 22.0722 35C22.3274 35.0001 24.0888 35 24.2675 35C24.4462 35 25.4928 35 26.3097 35C27.1266 35 25.9013 34.9997 27.1266 34.9999C28.3519 35 28.3519 31.0034 26.7181 31.0034C25.0844 31.0034 25.9013 31.0035 25.2886 31.0035C24.6003 30.9958 23.0422 31.0033 22.4295 31.0035Z" stroke="#FDFDFF"/>
<circle cx="15" cy="16" r="5" fill="#FDFDFF"/>
<circle cx="35" cy="16" r="5" fill="#FDFDFF"/>
<path d="M39 15C39 16.1046 38.4378 17 37.7442 17C37.0506 17 36.4884 16.1046 36.4884 15C36.4884 13.8954 37.0506 13 37.7442 13C38.4378 13 39 13.8954 39 15Z" fill="#393D3F"/>
<path d="M14.5116 15C14.5116 16.1046 13.9494 17 13.2558 17C12.5622 17 12 16.1046 12 15C12 13.8954 12.5622 13 13.2558 13C13.9494 13 14.5116 13.8954 14.5116 15Z" fill="#393D3F"/>
</svg>
