<svg width="50" height="50" viewBox="0 0 50 50" fill="none" xmlns="http://www.w3.org/2000/svg">
<path d="M50 25C50 38.8071 38.8071 50 25 50C11.1929 50 0 38.8071 0 25C0 11.1929 11.1929 0 25 0C38.8071 0 50 11.1929 50 25Z" fill="#393D3F"/>
<circle cx="15" cy="16" r="5" fill="#FDFDFF"/>
<ellipse cx="35" cy="13.5" rx="5" ry="2.5" fill="#FDFDFF"/>
<path d="M39 13.5C39 13.7761 38.521 14 37.9302 14C37.3394 14 36.8605 13.7761 36.8605 13.5C36.8605 13.2239 37.3394 13 37.9302 13C38.521 13 39 13.2239 39 13.5Z" fill="#393D3F"/>
<path d="M18.1395 13.5C18.1395 13.7761 17.6606 14 17.0698 14C16.479 14 16 13.7761 16 13.5C16 13.2239 16.479 13 17.0698 13C17.6606 13 18.1395 13.2239 18.1395 13.5Z" fill="#393D3F"/>
<path d="M24 31L22 32V34L24 35H26L28 34V32L26 31H24Z" stroke="#FDFDFF"/>
</svg>
