<svg width="60" height="60" viewBox="0 0 60 60" fill="none" xmlns="http://www.w3.org/2000/svg">
<g filter="url(#filter0_d_4_877)">
<path d="M55 28C55 41.8071 43.8071 53 30 53C16.1929 53 5 41.8071 5 28C5 14.1929 16.1929 3 30 3C43.8071 3 55 14.1929 55 28Z" fill="#393D3F"/>
</g>
<ellipse cx="20" cy="20" rx="5" ry="4" fill="#FDFDFF"/>
<circle cx="40" cy="19" r="5" fill="#FDFDFF"/>
<path d="M44 21C44 21.5523 43.4169 22 42.6977 22C41.9784 22 41.3953 21.5523 41.3953 21C41.3953 20.4477 41.9784 20 42.6977 20C43.4169 20 44 20.4477 44 21Z" fill="#393D3F"/>
<path d="M18.6047 21C18.6047 21.5523 18.0216 22 17.3023 22C16.5831 22 16 21.5523 16 21C16 20.4477 16.5831 20 17.3023 20C18.0216 20 18.6047 20.4477 18.6047 21Z" fill="#393D3F"/>
<path d="M28 34.9192C29.2 33.2545 30.5 34.2255 31 34.9192C30.262 35.9429 28.738 35.9429 28 34.9192Z" stroke="#FDFDFF"/>
<defs>
<filter id="filter0_d_4_877" x="0" y="0" width="60" height="60" filterUnits="userSpaceOnUse" color-interpolation-filters="sRGB">
<feFlood flood-opacity="0" result="BackgroundImageFix"/>
<feColorMatrix in="SourceAlpha" type="matrix" values="0 0 0 0 0 0 0 0 0 0 0 0 0 0 0 0 0 0 127 0" result="hardAlpha"/>
<feOffset dy="2"/>
<feGaussianBlur stdDeviation="2.5"/>
<feComposite in2="hardAlpha" operator="out"/>
<feColorMatrix type="matrix" values="0 0 0 0 1 0 0 0 0 1 0 0 0 0 1 0 0 0 0.25 0"/>
<feBlend mode="normal" in2="BackgroundImageFix" result="effect1_dropShadow_4_877"/>
<feBlend mode="normal" in="SourceGraphic" in2="effect1_dropShadow_4_877" result="shape"/>
</filter>
</defs>
</svg>
