<svg width="60" height="60" viewBox="0 0 60 60" fill="none" xmlns="http://www.w3.org/2000/svg">
<g filter="url(#filter0_d_4_876)">
<path d="M55 28C55 41.8071 43.8071 53 30 53C16.1929 53 5 41.8071 5 28C5 14.1929 16.1929 3 30 3C43.8071 3 55 14.1929 55 28Z" fill="#393D3F"/>
</g>
<circle cx="20" cy="19" r="5" fill="#FDFDFF"/>
<ellipse cx="40" cy="16.5" rx="5" ry="2.5" fill="#FDFDFF"/>
<path d="M44 16.5C44 16.7761 43.521 17 42.9302 17C42.3394 17 41.8605 16.7761 41.8605 16.5C41.8605 16.2239 42.3394 16 42.9302 16C43.521 16 44 16.2239 44 16.5Z" fill="#393D3F"/>
<path d="M23.1395 16.5C23.1395 16.7761 22.6606 17 22.0698 17C21.479 17 21 16.7761 21 16.5C21 16.2239 21.479 16 22.0698 16C22.6606 16 23.1395 16.2239 23.1395 16.5Z" fill="#393D3F"/>
<path d="M29 34L27 35V37L29 38H31L33 37V35L31 34H29Z" stroke="#FDFDFF"/>
<defs>
<filter id="filter0_d_4_876" x="0" y="0" width="60" height="60" filterUnits="userSpaceOnUse" color-interpolation-filters="sRGB">
<feFlood flood-opacity="0" result="BackgroundImageFix"/>
<feColorMatrix in="SourceAlpha" type="matrix" values="0 0 0 0 0 0 0 0 0 0 0 0 0 0 0 0 0 0 127 0" result="hardAlpha"/>
<feOffset dy="2"/>
<feGaussianBlur stdDeviation="2.5"/>
<feComposite in2="hardAlpha" operator="out"/>
<feColorMatrix type="matrix" values="0 0 0 0 1 0 0 0 0 1 0 0 0 0 1 0 0 0 0.25 0"/>
<feBlend mode="normal" in2="BackgroundImageFix" result="effect1_dropShadow_4_876"/>
<feBlend mode="normal" in="SourceGraphic" in2="effect1_dropShadow_4_876" result="shape"/>
</filter>
</defs>
</svg>
