<svg width="50" height="50" viewBox="0 0 50 50" fill="none" xmlns="http://www.w3.org/2000/svg">
<path d="M50 25C50 38.8071 38.8071 50 25 50C11.1929 50 0 38.8071 0 25C0 11.1929 11.1929 0 25 0C38.8071 0 50 11.1929 50 25Z" fill="#393D3F"/>
<ellipse cx="15" cy="17" rx="5" ry="4" fill="#FDFDFF"/>
<circle cx="35" cy="16" r="5" fill="#FDFDFF"/>
<path d="M39 18C39 18.5523 38.4169 19 37.6977 19C36.9784 19 36.3953 18.5523 36.3953 18C36.3953 17.4477 36.9784 17 37.6977 17C38.4169 17 39 17.4477 39 18Z" fill="#393D3F"/>
<path d="M13.6047 18C13.6047 18.5523 13.0216 19 12.3023 19C11.5831 19 11 18.5523 11 18C11 17.4477 11.5831 17 12.3023 17C13.0216 17 13.6047 17.4477 13.6047 18Z" fill="#393D3F"/>
<path d="M23 31.9192C24.2 30.2545 25.5 31.2255 26 31.9192C25.262 32.9429 23.738 32.9429 23 31.9192Z" stroke="#FDFDFF"/>
</svg>
