<svg width="50" height="50" viewBox="0 0 50 50" fill="none" xmlns="http://www.w3.org/2000/svg">
<circle cx="25" cy="25" r="25" fill="#393D3F"/>
<circle cx="15" cy="16" r="5" fill="#FDFDFF"/>
<circle cx="35" cy="16" r="5" fill="#FDFDFF"/>
<path d="M37.5 15C37.5 15.5523 37.0523 16 36.5 16C35.9477 16 35.5 15.5523 35.5 15C35.5 14.4477 35.9477 14 36.5 14C37.0523 14 37.5 14.4477 37.5 15Z" fill="#393D3F"/>
<path d="M18 15C18 15.5523 17.5523 16 17 16C16.4477 16 16 15.5523 16 15C16 14.4477 16.4477 14 17 14C17.5523 14 18 14.4477 18 15Z" fill="#393D3F"/>
<path d="M19 35L23.3359 32.1094C24.3436 31.4376 25.6564 31.4376 26.6641 32.1094L31 35" stroke="#FDFDFF"/>
<path d="M31 35L26.6641 37.8906C25.6564 38.5624 24.3436 38.5624 23.3359 37.8906L19 35" stroke="#FDFDFF"/>
</svg>
