<svg width="50" height="50" viewBox="0 0 50 50" fill="none" xmlns="http://www.w3.org/2000/svg">
<path d="M50 25C50 38.8071 38.8071 50 25 50C11.1929 50 0 38.8071 0 25C0 11.1929 11.1929 0 25 0C38.8071 0 50 11.1929 50 25Z" fill="#393D3F"/>
<circle cx="15" cy="16" r="5" fill="#FDFDFF"/>
<circle cx="34.5" cy="15.5" r="3.5" fill="#FDFDFF"/>
<path d="M19 35L20.5624 33.9584C23.2496 32.1669 26.7504 32.1669 29.4376 33.9584L31 35" stroke="#FDFDFF"/>
<path d="M20 35V35C23.0776 33.1534 26.9224 33.1534 30 35V35" stroke="#FDFDFF"/>
<path d="M31 35L27.7735 37.151C26.094 38.2707 23.906 38.2707 22.2265 37.151L19 35" stroke="#FDFDFF"/>
<path d="M30 35L28.087 36.1478C26.1869 37.2879 23.8131 37.2879 21.913 36.1478L20 35" stroke="#FDFDFF" stroke-width="2"/>
<path d="M35.5 14C35.5 14.5523 35.0523 15 34.5 15C33.9477 15 33.5 14.5523 33.5 14C33.5 13.4477 33.9477 13 34.5 13C35.0523 13 35.5 13.4477 35.5 14Z" fill="#393D3F"/>
<path d="M16 14C16 14.5523 15.5523 15 15 15C14.4477 15 14 14.5523 14 14C14 13.4477 14.4477 13 15 13C15.5523 13 16 13.4477 16 14Z" fill="#393D3F"/>
</svg>
