<svg width="60" height="60" viewBox="0 0 60 60" fill="none" xmlns="http://www.w3.org/2000/svg">
<g filter="url(#filter0_d_4_880)">
<circle cx="30" cy="28" r="25" fill="#393D3F"/>
</g>
<circle cx="20" cy="19" r="5" fill="#FDFDFF"/>
<circle cx="40" cy="19" r="5" fill="#FDFDFF"/>
<path d="M42.5 18C42.5 18.5523 42.0523 19 41.5 19C40.9477 19 40.5 18.5523 40.5 18C40.5 17.4477 40.9477 17 41.5 17C42.0523 17 42.5 17.4477 42.5 18Z" fill="#393D3F"/>
<path d="M23 18C23 18.5523 22.5523 19 22 19C21.4477 19 21 18.5523 21 18C21 17.4477 21.4477 17 22 17C22.5523 17 23 17.4477 23 18Z" fill="#393D3F"/>
<path d="M24 38L28.3359 35.1094C29.3436 34.4376 30.6564 34.4376 31.6641 35.1094L36 38" stroke="#FDFDFF"/>
<path d="M36 38L31.6641 40.8906C30.6564 41.5624 29.3436 41.5624 28.3359 40.8906L24 38" stroke="#FDFDFF"/>
<defs>
<filter id="filter0_d_4_880" x="0" y="0" width="60" height="60" filterUnits="userSpaceOnUse" color-interpolation-filters="sRGB">
<feFlood flood-opacity="0" result="BackgroundImageFix"/>
<feColorMatrix in="SourceAlpha" type="matrix" values="0 0 0 0 0 0 0 0 0 0 0 0 0 0 0 0 0 0 127 0" result="hardAlpha"/>
<feOffset dy="2"/>
<feGaussianBlur stdDeviation="2.5"/>
<feComposite in2="hardAlpha" operator="out"/>
<feColorMatrix type="matrix" values="0 0 0 0 1 0 0 0 0 1 0 0 0 0 1 0 0 0 0.25 0"/>
<feBlend mode="normal" in2="BackgroundImageFix" result="effect1_dropShadow_4_880"/>
<feBlend mode="normal" in="SourceGraphic" in2="effect1_dropShadow_4_880" result="shape"/>
</filter>
</defs>
</svg>
