<svg width="48" height="83" viewBox="0 0 48 83" fill="none" xmlns="http://www.w3.org/2000/svg">
<path d="M13.5398 81.3864H14.0694L14.2466 80.8873L18.4563 69.0284H35.0437L39.2534 80.8873L39.4306 81.3864H39.9602H45.5H46.5744L46.204 80.3778L30.1813 36.7415L30.0008 36.25H29.4773H24.0227H23.4992L23.3187 36.7415L7.29596 80.3778L6.92565 81.3864H8H13.5398ZM32.8472 62.8409H20.6528L26.75 45.6652L32.8472 62.8409Z" fill="#393D3F" stroke="#C6C5B9" stroke-width="1.5"/>
<path d="M1.13878 5.10538C0.629399 4.59222 1.64869 0.999958 2.15803 1C3.68579 1.00013 10.0991 1.57034 19.4763 8.1842C24.5694 11.7764 25.6817 20.6237 25.6817 20.6237C25.6817 20.6237 30.0688 17.6115 32.1942 17.6115C32.6952 17.6115 33.0835 17.8878 34.6991 21.1257C35.2001 22.1297 32.6952 23.6358 32.6952 23.6358C32.6952 23.6358 36.1372 26.0789 35.701 28.154C35.3293 29.9226 32.6952 31.1661 32.6952 31.1661C32.6952 31.1661 36.3378 33.04 35.701 35.1823C35.2206 36.7985 33.1962 37.6924 33.1962 37.6924C33.1962 37.6924 36.202 39.7005 35.701 41.7086C35.2001 43.7167 18.6686 51.749 17.1654 52.251C15.6622 52.7531 14.1596 50.2429 14.6605 48.2349C15.0027 46.8633 17.1654 45.7248 17.1654 45.7248C17.1654 45.7248 14.6606 43.6414 14.6606 42.2106C14.6606 40.7798 16.1012 39.6767 17.6663 38.6964C17.5238 38.7714 13.6586 36.6884 14.6606 34.1783C15.2139 32.792 17.1654 31.6682 17.1654 31.6682C14.3469 29.5737 13.9323 27.5258 14.6606 26.6479C15.3888 25.7701 21.674 22.6318 21.674 22.6318C21.674 22.6318 19.616 13.0927 14.8915 10.237C9.79793 7.15801 1.64815 5.61854 1.13878 5.10538Z" fill="#C6C5B9"/>
<path d="M32.6952 23.6358C32.6952 23.6358 35.2001 22.1297 34.6991 21.1257C33.0835 17.8878 32.6952 17.6115 32.1942 17.6115C30.0688 17.6115 25.6817 20.6237 25.6817 20.6237C25.6817 20.6237 24.5694 11.7764 19.4763 8.1842C10.0991 1.57034 3.68579 1.00013 2.15803 1C1.64869 0.999958 0.629399 4.59222 1.13878 5.10538C1.64815 5.61854 9.79793 7.15801 14.8915 10.237C19.616 13.0927 21.674 22.6318 21.674 22.6318C21.674 22.6318 15.3888 25.7701 14.6606 26.6479C13.9323 27.5258 14.3469 29.5737 17.1654 31.6682M32.6952 23.6358C32.6952 23.6358 36.1372 26.0789 35.701 28.154C35.3293 29.9226 32.6952 31.1661 32.6952 31.1661M32.6952 23.6358L17.1654 31.6682M32.6952 31.1661C32.6952 31.1661 36.3378 33.04 35.701 35.1823C35.2206 36.7985 33.1962 37.6924 33.1962 37.6924M32.6952 31.1661L17.6663 38.6964M33.1962 37.6924C33.1962 37.6924 36.202 39.7005 35.701 41.7086C35.2001 43.7167 18.6686 51.749 17.1654 52.251C15.6622 52.7531 14.1596 50.2429 14.6605 48.2349C15.0027 46.8633 17.1654 45.7248 17.1654 45.7248M33.1962 37.6924L17.1654 45.7248M17.1654 45.7248C17.1654 45.7248 14.6606 43.6414 14.6606 42.2106C14.6606 40.7798 16.1012 39.6767 17.6663 38.6964M17.6663 38.6964C17.5238 38.7714 13.6586 36.6884 14.6606 34.1783C15.2139 32.792 17.1654 31.6682 17.1654 31.6682" stroke="#393D3F" stroke-width="1.5"/>
</svg>
