<svg width="48" height="82" viewBox="0 0 48 82" fill="none" xmlns="http://www.w3.org/2000/svg">
<path d="M13.5398 80.3864H14.0694L14.2466 79.8873L18.5052 67.8907L35.0422 68.0241L39.2534 79.8873L39.4306 80.3864H39.9602H45.5H46.5744L46.204 79.3778L30.1813 35.7415L30.0008 35.25H29.4773H24.0227H23.4992L23.3187 35.7415L7.29596 79.3778L6.92565 80.3864H8H13.5398ZM26.75 44.6651L32.8484 61.8443L20.6379 61.883L26.75 44.6651Z" fill="#62929E" stroke="#546A7B" stroke-width="1.5"/>
<path d="M1.13623 5.15805C0.63621 4.63831 1.63677 0.999988 2.13675 1.00003C3.63643 1.00016 9.93189 1.57768 19.1367 8.27634C24.1362 11.9146 25.2281 20.8753 25.2281 20.8753C25.2281 20.8753 29.5346 17.8246 31.621 17.8246C32.1127 17.8246 32.4939 18.1043 34.0798 21.3838C34.5715 22.4007 32.1127 23.9261 32.1127 23.9261C32.1127 23.9261 35.4915 26.4005 35.0633 28.5022C34.6984 30.2935 32.1127 31.5529 32.1127 31.5529C32.1127 31.5529 35.6884 33.4508 35.0633 35.6206C34.5917 37.2575 32.6045 38.1629 32.6045 38.1629C32.6045 38.1629 35.5551 40.1967 35.0633 42.2305C34.5716 44.2644 18.3439 52.3997 16.8683 52.9081C15.3927 53.4166 13.9177 50.8743 14.4095 48.8405C14.7454 47.4513 16.8683 46.2982 16.8683 46.2982C16.8683 46.2982 14.4095 44.1881 14.4095 42.739C14.4095 41.2899 15.8237 40.1726 17.36 39.1798C17.2201 39.2557 13.426 37.146 14.4095 34.6037C14.9527 33.1996 16.8683 32.0614 16.8683 32.0614C14.1016 29.9401 13.6946 27.8659 14.4095 26.9768C15.1244 26.0877 21.2941 22.9091 21.2941 22.9091C21.2941 22.9091 19.2738 13.2478 14.6362 10.3554C9.63624 7.23699 1.63624 5.67778 1.13623 5.15805Z" fill="#C6C5B9"/>
<path d="M32.1127 23.9261C32.1127 23.9261 34.5715 22.4007 34.0798 21.3838C32.4939 18.1043 32.1127 17.8246 31.621 17.8246C29.5346 17.8246 25.2281 20.8753 25.2281 20.8753C25.2281 20.8753 24.1362 11.9146 19.1367 8.27634C9.93189 1.57768 3.63643 1.00016 2.13675 1.00003C1.63677 0.999988 0.63621 4.63831 1.13623 5.15805C1.63624 5.67778 9.63624 7.23699 14.6362 10.3554C19.2738 13.2478 21.2941 22.9091 21.2941 22.9091C21.2941 22.9091 15.1244 26.0877 14.4095 26.9768C13.6946 27.8659 14.1016 29.9401 16.8683 32.0614M32.1127 23.9261C32.1127 23.9261 35.4915 26.4005 35.0633 28.5022C34.6984 30.2935 32.1127 31.5529 32.1127 31.5529M32.1127 23.9261L16.8683 32.0614M32.1127 31.5529C32.1127 31.5529 35.6884 33.4508 35.0633 35.6206C34.5917 37.2575 32.6045 38.1629 32.6045 38.1629M32.1127 31.5529L17.36 39.1798M32.6045 38.1629C32.6045 38.1629 35.5551 40.1967 35.0633 42.2305C34.5716 44.2644 18.3439 52.3997 16.8683 52.9081C15.3927 53.4166 13.9177 50.8743 14.4095 48.8405C14.7454 47.4513 16.8683 46.2982 16.8683 46.2982M32.6045 38.1629L16.8683 46.2982M16.8683 46.2982C16.8683 46.2982 14.4095 44.1881 14.4095 42.739C14.4095 41.2899 15.8237 40.1726 17.36 39.1798M17.36 39.1798C17.2201 39.2557 13.426 37.146 14.4095 34.6037C14.9527 33.1996 16.8683 32.0614 16.8683 32.0614" stroke="#393D3F" stroke-width="1.5"/>
</svg>
