<svg width="150" height="150" viewBox="0 0 150 150" fill="none" xmlns="http://www.w3.org/2000/svg">
<path d="M75 57.1406C71.468 57.142 68.0158 58.1905 65.0797 60.1537C62.1436 62.1169 59.8556 64.9067 58.5049 68.1702C57.1542 71.4336 56.8014 75.0244 57.4913 78.4883C58.1812 81.9522 59.8826 85.1338 62.3806 87.6309C64.8785 90.1279 68.0608 91.8281 71.525 92.5167C74.9892 93.2053 78.5797 92.8512 81.8427 91.4993C85.1057 90.1473 87.8946 87.8583 89.8567 84.9214C91.8188 81.9846 92.8661 78.532 92.8661 75C92.8625 70.2633 90.9789 65.7218 87.6289 62.3731C84.2789 59.0244 79.7367 57.1424 75 57.1406V57.1406ZM116.756 43.4129C115.846 41.1088 114.473 39.0161 112.722 37.2646C110.97 35.5131 108.878 34.1402 106.574 33.231C99.5424 30.4554 82.8013 31.0781 75 31.0781C67.1987 31.0781 50.4743 30.4319 43.423 33.231C41.1189 34.1402 39.0262 35.5131 37.2747 37.2646C35.5232 39.0161 34.1503 41.1088 33.2411 43.4129C30.4688 50.4442 31.0882 67.202 31.0882 74.9967C31.0882 82.7913 30.4688 99.529 33.2545 106.584C34.1637 108.888 35.5366 110.981 37.2881 112.732C39.0396 114.484 41.1323 115.856 43.4364 116.766C50.4676 119.541 67.2087 118.919 75.0134 118.919C82.8181 118.919 99.5357 119.565 106.587 116.766C108.891 115.856 110.984 114.484 112.735 112.732C114.487 110.981 115.86 108.888 116.769 106.584C119.565 99.5525 118.922 82.7946 118.922 75C118.922 67.2054 119.565 50.471 116.769 43.4163L116.756 43.4129ZM75 102.455C69.5698 102.455 64.2616 100.845 59.7466 97.8283C55.2316 94.8115 51.7126 90.5235 49.6346 85.5067C47.5565 80.4899 47.0128 74.9695 48.0722 69.6437C49.1316 64.3179 51.7464 59.4258 55.5861 55.5861C59.4258 51.7464 64.3179 49.1316 69.6437 48.0722C74.9695 47.0128 80.4899 47.5565 85.5067 49.6346C90.5235 51.7126 94.8115 55.2316 97.8283 59.7466C100.845 64.2616 102.455 69.5698 102.455 75C102.46 78.6067 101.753 82.1789 100.374 85.5119C98.9962 88.8449 96.974 91.8734 94.4237 94.4237C91.8734 96.974 88.8449 98.9962 85.5119 100.374C82.1789 101.753 78.6067 102.46 75 102.455V102.455ZM103.587 52.8013C102.319 52.802 101.08 52.4267 100.026 51.7229C98.9715 51.0192 98.1496 50.0185 97.664 48.8476C97.1784 47.6767 97.0511 46.388 97.298 45.1447C97.5449 43.9013 98.1549 42.7591 99.051 41.8626C99.9471 40.966 101.089 40.3553 102.332 40.1078C103.575 39.8602 104.864 39.9869 106.035 40.4719C107.207 40.9568 108.208 41.7782 108.912 42.8322C109.616 43.8861 109.992 45.1252 109.992 46.3929C109.996 47.2346 109.833 48.0688 109.513 48.8476C109.194 49.6264 108.724 50.3344 108.13 50.931C107.536 51.5276 106.83 52.0012 106.053 52.3244C105.276 52.6477 104.442 52.8143 103.6 52.8147L103.587 52.8013ZM133.929 0H16.0714C11.809 0 7.72119 1.69324 4.70721 4.70721C1.69323 7.72119 0 11.809 0 16.0714L0 133.929C0 138.191 1.69323 142.279 4.70721 145.293C7.72119 148.307 11.809 150 16.0714 150H133.929C138.191 150 142.279 148.307 145.293 145.293C148.307 142.279 150 138.191 150 133.929V16.0714C150 11.809 148.307 7.72119 145.293 4.70721C142.279 1.69324 138.191 0 133.929 0V0ZM128.196 97.0982C127.765 105.68 125.806 113.283 119.541 119.531C113.277 125.779 105.68 127.778 97.1083 128.186C88.2656 128.685 61.7545 128.685 52.9118 128.186C44.3304 127.754 36.7533 125.792 30.4788 119.531C24.2042 113.27 22.2321 105.663 21.8237 97.0982C21.3248 88.2522 21.3248 61.7377 21.8237 52.9018C22.2556 44.3203 24.1908 36.7165 30.4788 30.4688C36.7667 24.221 44.3638 22.2455 52.9118 21.8371C61.7545 21.3382 88.2656 21.3382 97.1083 21.8371C105.69 22.269 113.29 24.231 119.541 30.4922C125.792 36.7533 127.788 44.3605 128.196 52.942C128.695 61.7545 128.695 88.2455 128.196 97.0982Z" fill="#FDFDFF"/>
</svg>
