<svg width="150" height="150" viewBox="0 0 150 150" fill="none" xmlns="http://www.w3.org/2000/svg">
<path d="M139.286 0H10.6808C4.78795 0 0 4.85491 0 10.8147V139.185C0 145.145 4.78795 150 10.6808 150H139.286C145.179 150 150 145.145 150 139.185V10.8147C150 4.85491 145.179 0 139.286 0ZM45.3348 128.571H23.1027V56.9866H45.3683V128.571H45.3348ZM34.2187 47.2098C27.0871 47.2098 21.3281 41.4174 21.3281 34.3192C21.3281 27.221 27.0871 21.4286 34.2187 21.4286C41.317 21.4286 47.1094 27.221 47.1094 34.3192C47.1094 41.4509 41.3504 47.2098 34.2187 47.2098V47.2098ZM128.672 128.571H106.44V93.75C106.44 85.4464 106.272 74.7656 94.8884 74.7656C83.3036 74.7656 81.529 83.8058 81.529 93.1473V128.571H59.2969V56.9866H80.625V66.7634H80.9263C83.9062 61.1384 91.1719 55.2121 101.987 55.2121C124.487 55.2121 128.672 70.0446 128.672 89.3304V128.571V128.571Z" fill="#FDFDFF"/>
</svg>
