<svg width="150" height="150" viewBox="0 0 150 150" fill="none" xmlns="http://www.w3.org/2000/svg">
<path d="M133.929 0H16.0714C7.19866 0 0 7.19866 0 16.0714V133.929C0 142.801 7.19866 150 16.0714 150H133.929C142.801 150 150 142.801 150 133.929V16.0714C150 7.19866 142.801 0 133.929 0ZM92.846 128.471C90.0335 128.973 88.9955 127.232 88.9955 125.792C88.9955 123.984 89.0625 114.743 89.0625 107.277C89.0625 102.054 87.3214 98.7388 85.279 96.9978C97.6674 95.625 110.725 93.9174 110.725 72.5223C110.725 66.4286 108.549 63.3817 105 59.4643C105.569 58.0246 107.478 52.0982 104.431 44.3973C99.7768 42.9576 89.1295 50.3906 89.1295 50.3906C84.7098 49.1518 79.9219 48.5156 75.2009 48.5156C70.4799 48.5156 65.692 49.1518 61.2723 50.3906C61.2723 50.3906 50.625 42.9576 45.971 44.3973C42.9241 52.0647 44.7991 57.9911 45.4018 59.4643C41.8527 63.3817 40.1786 66.4286 40.1786 72.5223C40.1786 93.817 52.6674 95.625 65.0558 96.9978C63.4487 98.4375 62.0089 100.915 61.5067 104.464C58.3259 105.904 50.1897 108.382 45.3348 99.8103C42.2879 94.5201 36.7969 94.0848 36.7969 94.0848C31.3728 94.0179 36.4286 97.5 36.4286 97.5C40.0446 99.1741 42.5893 105.603 42.5893 105.603C45.8371 115.547 61.3728 112.199 61.3728 112.199C61.3728 116.853 61.4397 124.42 61.4397 125.792C61.4397 127.232 60.4353 128.973 57.5893 128.471C35.4911 121.071 20.0223 100.045 20.0223 75.4687C20.0223 44.7321 43.5268 21.3951 74.2634 21.3951C105 21.3951 129.911 44.7321 129.911 75.4687C129.944 100.045 114.944 121.105 92.846 128.471ZM60 108.013C59.3638 108.147 58.7612 107.879 58.6942 107.444C58.6272 106.942 59.0625 106.507 59.6987 106.373C60.3348 106.306 60.9375 106.574 61.0045 107.009C61.1049 107.444 60.6696 107.879 60 108.013ZM56.8192 107.712C56.8192 108.147 56.317 108.516 55.6473 108.516C54.9107 108.583 54.4085 108.214 54.4085 107.712C54.4085 107.277 54.9107 106.908 55.5804 106.908C56.2165 106.842 56.8192 107.21 56.8192 107.712ZM52.2321 107.344C52.0982 107.779 51.4286 107.98 50.8594 107.779C50.2232 107.645 49.7879 107.143 49.9219 106.708C50.0558 106.272 50.7254 106.071 51.2946 106.205C51.9643 106.406 52.3996 106.908 52.2321 107.344ZM48.1138 105.536C47.8125 105.904 47.1763 105.837 46.6741 105.335C46.1719 104.9 46.0379 104.263 46.3728 103.962C46.6741 103.594 47.3103 103.661 47.8125 104.163C48.2478 104.598 48.4152 105.268 48.1138 105.536ZM45.067 102.489C44.7656 102.69 44.1964 102.489 43.8281 101.987C43.4598 101.484 43.4598 100.915 43.8281 100.681C44.1964 100.379 44.7656 100.614 45.067 101.116C45.4353 101.618 45.4353 102.221 45.067 102.489V102.489ZM42.8906 99.2411C42.5893 99.5424 42.0871 99.375 41.7188 99.0402C41.3504 98.6049 41.2835 98.1027 41.5848 97.8683C41.8862 97.567 42.3884 97.7344 42.7567 98.0692C43.125 98.5045 43.192 99.0067 42.8906 99.2411ZM40.6473 96.7634C40.5134 97.0647 40.0781 97.1317 39.7098 96.8973C39.2746 96.6964 39.0737 96.3281 39.2076 96.0268C39.3415 95.8259 39.7098 95.7254 40.1451 95.8929C40.5804 96.1272 40.7813 96.4955 40.6473 96.7634Z" fill="#FDFDFF"/>
</svg>
